<svg width="24" height="24" viewBox="0 0 24 24" fill="none" xmlns="http://www.w3.org/2000/svg">
<g id="Star 4">
<path id="Star 1" d="M10.9059 3.08018C11.1526 2.32092 12.2267 2.32092 12.4734 3.08018L14.095 8.07077C14.2053 8.41032 14.5217 8.64022 14.8787 8.64022H20.1262C20.9245 8.64022 21.2564 9.6618 20.6106 10.131L16.3653 13.2154C16.0765 13.4253 15.9556 13.7972 16.0659 14.1368L17.6875 19.1274C17.9342 19.8866 17.0652 20.518 16.4193 20.0488L12.174 16.9644C11.8852 16.7546 11.4941 16.7546 11.2052 16.9644L6.96 20.0488C6.31413 20.518 5.44512 19.8866 5.69182 19.1274L7.31336 14.1368C7.42369 13.7972 7.30283 13.4253 7.01399 13.2154L2.76874 10.131C2.12287 9.6618 2.4548 8.64022 3.25314 8.64022H8.50055C8.85758 8.64022 9.174 8.41032 9.28433 8.07077L10.9059 3.08018Z" fill="#D9A963"/>
</g>
</svg>
