<svg width="24" height="24" viewBox="0 0 24 24" fill="none" xmlns="http://www.w3.org/2000/svg">
<g id="Star 5">
<path id="Star 1" d="M11.4535 3.08018C11.7002 2.32092 12.7743 2.32092 13.021 3.08018L14.6426 8.07077C14.7529 8.41032 15.0693 8.64022 15.4263 8.64022H20.6738C21.4721 8.64022 21.804 9.6618 21.1582 10.131L16.9129 13.2154C16.6241 13.4253 16.5032 13.7972 16.6135 14.1368L18.2351 19.1274C18.4818 19.8866 17.6128 20.518 16.9669 20.0488L12.7217 16.9644C12.4328 16.7546 12.0417 16.7546 11.7529 16.9644L7.50761 20.0488C6.86174 20.518 5.99273 19.8866 6.23943 19.1274L7.86097 14.1368C7.9713 13.7972 7.85044 13.4253 7.5616 13.2154L3.31635 10.131C2.67048 9.6618 3.00241 8.64022 3.80075 8.64022H9.04816C9.40519 8.64022 9.72161 8.41032 9.83194 8.07077L11.4535 3.08018Z" fill="#F2E3CE"/>
</g>
</svg>
